<?xml version="1.0" encoding="UTF-8" standalone="no"?>
<svg
   version="1.0"
   width="1280.000000pt"
   height="1280.000000pt"
   viewBox="0 0 1280.000000 1280.000000"
   preserveAspectRatio="xMidYMid meet"
   id="svg2"
   sodipodi:docname="video.svg"
   inkscape:version="1.4 (unknown)"
   xmlns:inkscape="http://www.inkscape.org/namespaces/inkscape"
   xmlns:sodipodi="http://sodipodi.sourceforge.net/DTD/sodipodi-0.dtd"
   xmlns="http://www.w3.org/2000/svg"
   xmlns:svg="http://www.w3.org/2000/svg">
  <defs
     id="defs2" />
  <sodipodi:namedview
     id="namedview2"
     pagecolor="#ffffff"
     bordercolor="#000000"
     borderopacity="0.25"
     inkscape:showpageshadow="2"
     inkscape:pageopacity="0.0"
     inkscape:pagecheckerboard="0"
     inkscape:deskcolor="#d1d1d1"
     inkscape:document-units="pt"
     inkscape:zoom="0.68320313"
     inkscape:cx="852.60149"
     inkscape:cy="853.33333"
     inkscape:window-width="2560"
     inkscape:window-height="1368"
     inkscape:window-x="0"
     inkscape:window-y="0"
     inkscape:window-maximized="1"
     inkscape:current-layer="g2"
     showguides="true">
    <sodipodi:guide
       position="642.19556,625.729"
       orientation="1,0"
       id="guide3"
       inkscape:locked="false" />
    <sodipodi:guide
       position="30.771066,639.25655"
       orientation="0,-1"
       id="guide4"
       inkscape:locked="false" />
  </sodipodi:namedview>
  <metadata
     id="metadata1">
Created by potrace 1.15, written by Peter Selinger 2001-2017
</metadata>
  <g
     transform="translate(0.000000,1280.000000) scale(0.100000,-0.100000)"
     fill="#000000"
     stroke="none"
     id="g2">
    <ellipse
       style="fill:#ffffff;stroke-width:8.76313"
       id="path3"
       cx="6386.0459"
       cy="-6334.0527"
       transform="scale(1,-1)"
       rx="5626.0718"
       ry="5680.9604" />
    <path
       d="m 4870.8404,8706.4384 c -60,-31 -99,-92 -141,-220 l -34,-103 2,-640 c 1,-352 7,-1234 13,-1960.0005 11,-1226 13,-1326 30,-1400 67,-289 179,-342 506,-237 12,4 774,441 1694,972 1567,904 1677,969 1740,1032 92,91 134,174 128,255.0005 -6,81 -41,146 -123,228 -67,67 -141,111 -1760,1051 -1186,689 -1709,988 -1755,1002 -151,48 -234,53 -300,20 z"
       id="path2"
       style="fill:#ff0000" />
    <path
       d="m 6142.9005,12784.812 c -710,-48 -1205,-142 -1790,-342 -674.0003,-231 -1331.0003,-585 -1885.0003,-1017 -302,-236 -722,-639 -952,-915 C 664.90018,9489.8119 176.90018,8308.8119 46.900176,6955.8124 c -22,-224 -25,-826 -6,-1045 50.000002,-570 150.000004,-1054 320.000004,-1560 398,-1179 1112.00002,-2203 2067.00002,-2965 920,-732.99997 2023.0003,-1196.99997 3200.0003,-1343.999969 311,-38.9999997 425,-44.9999997 800,-44.9999997 372,0 552,11 840,49.9999997 1210,162.999999 2339,662.999999 3294.9995,1458.999969 195,162 608,574 767,765 851,1022 1339,2202 1469,3555 22,224 25,826 6,1045 -39,446 -108,834 -217,1224.9995 -250,898 -677,1711 -1284,2440.0001 -158,190 -572,604 -761,762 -1018.9995,849 -2213.9995,1343 -3549.9995,1469 -154,14 -724,26 -850,18 z m 717,-1279 c 787,-72 1483,-295 2158,-688 857,-500 1569.9995,-1266.0001 2004.9995,-2152.0001 275,-559 429,-1084.9995 506,-1727.9995 25,-202 30,-755 10,-973 -62,-673 -223,-1253 -511,-1839 -497,-1010 -1328.9995,-1843 -2329.9995,-2335 -559,-275 -1085,-429 -1728,-506 -202,-25 -755,-30 -973,-10 -799,73 -1491,294 -2169.0003,689 -1158,676 -2032,1823 -2366,3102 -117,452 -163,812 -162,1290 0,532 67,993 214,1482 316,1048.9995 947,1968.9995 1803,2631.9996 359,278 757,508 1166.0003,674 457,186 967,312 1440,356 63,6 131,13 150,14 111,11 642,5 787,-8 z"
       id="path1"
       style="fill:#ff0000" />
  </g>
</svg>
